<svg width="21" height="20" viewBox="0 0 21 20" fill="none" xmlns="http://www.w3.org/2000/svg">
<g id="home-02">
<path id="Icon" d="M8 17.5V11.3333C8 10.8666 8 10.6333 8.09083 10.455C8.17072 10.2982 8.29821 10.1707 8.45501 10.0908C8.63327 10 8.86662 10 9.33333 10H11.6667C12.1334 10 12.3667 10 12.545 10.0908C12.7018 10.1707 12.8293 10.2982 12.9092 10.455C13 10.6333 13 10.8666 13 11.3333V17.5M9.68141 2.30335L4.02949 6.69929C3.65168 6.99314 3.46278 7.14006 3.32669 7.32406C3.20614 7.48705 3.11633 7.67067 3.06169 7.86589C3 8.08628 3 8.3256 3 8.80423V14.8333C3 15.7668 3 16.2335 3.18166 16.59C3.34144 16.9036 3.59641 17.1586 3.91002 17.3183C4.26654 17.5 4.73325 17.5 5.66667 17.5H15.3333C16.2668 17.5 16.7335 17.5 17.09 17.3183C17.4036 17.1586 17.6586 16.9036 17.8183 16.59C18 16.2335 18 15.7668 18 14.8333V8.80423C18 8.3256 18 8.08628 17.9383 7.86589C17.8837 7.67067 17.7939 7.48705 17.6733 7.32406C17.5372 7.14006 17.3483 6.99314 16.9705 6.69929L11.3186 2.30335C11.0258 2.07564 10.8794 1.96178 10.7178 1.91802C10.5752 1.8794 10.4248 1.8794 10.2822 1.91802C10.1206 1.96178 9.97418 2.07564 9.68141 2.30335Z" stroke="white" stroke-width="1.66667" stroke-linecap="round" stroke-linejoin="round"/>
</g>
</svg>
